<svg width="69" height="69" viewBox="0 0 69 69" fill="none" xmlns="http://www.w3.org/2000/svg">
<circle cx="34.5" cy="34.5" r="34.5" fill="#F40A0A"/>
<path d="M33.8937 42.1141L41.7569 35.1538C42.1751 34.8164 42.1751 34.1414 41.7569 33.804L33.8937 26.8859C33.5591 26.5906 33.7683 26 34.2283 26H41.2549C41.6314 26 42.0078 26.1266 42.2588 26.3797L50.7074 33.804C51.1257 34.1414 51.1257 34.8164 50.7074 35.1538L42.2588 42.6203C41.966 42.8734 41.6314 43 41.2549 43H34.2283C33.7683 43 33.5591 42.4516 33.8937 42.1141Z" fill="white"/>
<path d="M29.9202 27.8983C30.4283 27.8983 30.8403 27.4828 30.8403 26.9703C30.8403 26.4577 30.4283 26.0422 29.9202 26.0422C29.412 26.0422 29 26.4577 29 26.9703C29 27.4828 29.412 27.8983 29.9202 27.8983Z" fill="white"/>
<path d="M32.3878 30.4293C32.896 30.4293 33.308 30.0138 33.308 29.5013C33.308 28.9887 32.896 28.5732 32.3878 28.5732C31.8796 28.5732 31.4677 28.9887 31.4677 29.5013C31.4677 30.0138 31.8796 30.4293 32.3878 30.4293Z" fill="white"/>
<path d="M34.8555 32.9182C35.3637 32.9182 35.7757 32.5027 35.7757 31.9901C35.7757 31.4776 35.3637 31.0621 34.8555 31.0621C34.3473 31.0621 33.9354 31.4776 33.9354 31.9901C33.9354 32.5027 34.3473 32.9182 34.8555 32.9182Z" fill="white"/>
<path d="M37.365 35.4492C37.8732 35.4492 38.2852 35.0337 38.2852 34.5211C38.2852 34.0086 37.8732 33.5931 37.365 33.5931C36.8569 33.5931 36.4449 34.0086 36.4449 34.5211C36.4449 35.0337 36.8569 35.4492 37.365 35.4492Z" fill="white"/>
<path d="M29.9202 42.9579C30.4283 42.9579 30.8403 42.5424 30.8403 42.0298C30.8403 41.5173 30.4283 41.1018 29.9202 41.1018C29.412 41.1018 29 41.5173 29 42.0298C29 42.5424 29.412 42.9579 29.9202 42.9579Z" fill="white"/>
<path d="M32.3878 40.4269C32.896 40.4269 33.308 40.0114 33.308 39.4988C33.308 38.9863 32.896 38.5708 32.3878 38.5708C31.8796 38.5708 31.4677 38.9863 31.4677 39.4988C31.4677 40.0114 31.8796 40.4269 32.3878 40.4269Z" fill="white"/>
<path d="M34.8555 37.938C35.3637 37.938 35.7757 37.5225 35.7757 37.01C35.7757 36.4974 35.3637 36.0819 34.8555 36.0819C34.3473 36.0819 33.9354 36.4974 33.9354 37.01C33.9354 37.5225 34.3473 37.938 34.8555 37.938Z" fill="white"/>
<path d="M37.365 35.4492C37.8732 35.4492 38.2852 35.0337 38.2852 34.5211C38.2852 34.0086 37.8732 33.5931 37.365 33.5931C36.8569 33.5931 36.4449 34.0086 36.4449 34.5211C36.4449 35.0337 36.8569 35.4492 37.365 35.4492Z" fill="white"/>
<path d="M24.3992 27.8983C24.9073 27.8983 25.3193 27.4828 25.3193 26.9703C25.3193 26.4577 24.9073 26.0422 24.3992 26.0422C23.891 26.0422 23.479 26.4577 23.479 26.9703C23.479 27.4828 23.891 27.8983 24.3992 27.8983Z" fill="white"/>
<path d="M26.9087 30.4293C27.4169 30.4293 27.8288 30.0138 27.8288 29.5013C27.8288 28.9887 27.4169 28.5732 26.9087 28.5732C26.4005 28.5732 25.9885 28.9887 25.9885 29.5013C25.9885 30.0138 26.4005 30.4293 26.9087 30.4293Z" fill="white"/>
<path d="M29.3763 32.9182C29.8845 32.9182 30.2965 32.5027 30.2965 31.9901C30.2965 31.4776 29.8845 31.0621 29.3763 31.0621C28.8681 31.0621 28.4562 31.4776 28.4562 31.9901C28.4562 32.5027 28.8681 32.9182 29.3763 32.9182Z" fill="white"/>
<path d="M31.8859 35.4492C32.394 35.4492 32.806 35.0337 32.806 34.5211C32.806 34.0086 32.394 33.5931 31.8859 33.5931C31.3777 33.5931 30.9657 34.0086 30.9657 34.5211C30.9657 35.0337 31.3777 35.4492 31.8859 35.4492Z" fill="white"/>
<path d="M24.3992 42.9579C24.9073 42.9579 25.3193 42.5424 25.3193 42.0298C25.3193 41.5173 24.9073 41.1018 24.3992 41.1018C23.891 41.1018 23.479 41.5173 23.479 42.0298C23.479 42.5424 23.891 42.9579 24.3992 42.9579Z" fill="white"/>
<path d="M26.9087 40.4269C27.4169 40.4269 27.8288 40.0114 27.8288 39.4988C27.8288 38.9863 27.4169 38.5708 26.9087 38.5708C26.4005 38.5708 25.9885 38.9863 25.9885 39.4988C25.9885 40.0114 26.4005 40.4269 26.9087 40.4269Z" fill="white"/>
<path d="M29.3763 37.938C29.8845 37.938 30.2965 37.5225 30.2965 37.01C30.2965 36.4974 29.8845 36.0819 29.3763 36.0819C28.8681 36.0819 28.4562 36.4974 28.4562 37.01C28.4562 37.5225 28.8681 37.938 29.3763 37.938Z" fill="white"/>
<path d="M31.8859 35.4492C32.394 35.4492 32.806 35.0337 32.806 34.5211C32.806 34.0086 32.394 33.5931 31.8859 33.5931C31.3777 33.5931 30.9657 34.0086 30.9657 34.5211C30.9657 35.0337 31.3777 35.4492 31.8859 35.4492Z" fill="white"/>
<path d="M18.9202 27.8983C19.4283 27.8983 19.8403 27.4828 19.8403 26.9703C19.8403 26.4577 19.4283 26.0422 18.9202 26.0422C18.412 26.0422 18 26.4577 18 26.9703C18 27.4828 18.412 27.8983 18.9202 27.8983Z" fill="white"/>
<path d="M21.4297 30.4293C21.9379 30.4293 22.3498 30.0138 22.3498 29.5013C22.3498 28.9887 21.9379 28.5732 21.4297 28.5732C20.9215 28.5732 20.5095 28.9887 20.5095 29.5013C20.5095 30.0138 20.9215 30.4293 21.4297 30.4293Z" fill="white"/>
<path d="M23.8973 32.9182C24.4055 32.9182 24.8175 32.5027 24.8175 31.9901C24.8175 31.4776 24.4055 31.0621 23.8973 31.0621C23.3891 31.0621 22.9772 31.4776 22.9772 31.9901C22.9772 32.5027 23.3891 32.9182 23.8973 32.9182Z" fill="white"/>
<path d="M26.4068 35.4492C26.915 35.4492 27.327 35.0337 27.327 34.5211C27.327 34.0086 26.915 33.5931 26.4068 33.5931C25.8987 33.5931 25.4867 34.0086 25.4867 34.5211C25.4867 35.0337 25.8987 35.4492 26.4068 35.4492Z" fill="white"/>
<path d="M18.9202 42.9579C19.4283 42.9579 19.8403 42.5424 19.8403 42.0298C19.8403 41.5173 19.4283 41.1018 18.9202 41.1018C18.412 41.1018 18 41.5173 18 42.0298C18 42.5424 18.412 42.9579 18.9202 42.9579Z" fill="white"/>
<path d="M21.4297 40.4269C21.9379 40.4269 22.3498 40.0114 22.3498 39.4988C22.3498 38.9863 21.9379 38.5708 21.4297 38.5708C20.9215 38.5708 20.5095 38.9863 20.5095 39.4988C20.5095 40.0114 20.9215 40.4269 21.4297 40.4269Z" fill="white"/>
<path d="M23.8973 37.938C24.4055 37.938 24.8175 37.5225 24.8175 37.01C24.8175 36.4974 24.4055 36.0819 23.8973 36.0819C23.3891 36.0819 22.9772 36.4974 22.9772 37.01C22.9772 37.5225 23.3891 37.938 23.8973 37.938Z" fill="white"/>
<path d="M26.4068 35.4492C26.915 35.4492 27.327 35.0337 27.327 34.5211C27.327 34.0086 26.915 33.5931 26.4068 33.5931C25.8987 33.5931 25.4867 34.0086 25.4867 34.5211C25.4867 35.0337 25.8987 35.4492 26.4068 35.4492Z" fill="white"/>
</svg>
